<?xml version="1.0" encoding="UTF-8" standalone="no"?>
<svg
   width="59.054668"
   height="59.054707"
   fill="none"
   viewBox="0 0 119.08277 120.99013"
   version="1.1"
   id="svg256"
   xml:space="preserve"
   xmlns="http://www.w3.org/2000/svg"
   xmlns:svg="http://www.w3.org/2000/svg"><defs
     id="defs260" /><rect
     style="fill:none;fill-opacity:1;stroke:none;stroke-width:1.9367;stroke-opacity:1"
     id="rect671-5-4-9-3-7"
     width="120.99013"
     height="120.99013"
     x="-2.9389853"
     y="1.5258789e-05" /><style
     id="style11059">.st0{fill:#007acc}.st1{fill:#fff}</style><path
     d="m 27.613441,19.693117 c -5.84503,0 -10.17006,5.11595 -9.9764,10.66406 0.18586,5.33024 -0.0557,12.23365 -1.79348,17.86342 -1.74407,5.64555 -4.69158,9.2231 -9.5070301,9.68229 v 5.18436 c 4.8154501,0.4602 7.7629601,4.03595 9.5068101,9.6823 1.73808,5.62976 1.97937,12.53318 1.79349,17.86341 -0.19367,5.54731 4.13138,10.664073 9.97741,10.664073 h 59.89233 c 5.845,0 10.1692,-5.115943 9.9756,-10.664073 -0.1859,-5.33023 0.055,-12.23365 1.7934,-17.86341 1.744099,-5.64635 4.684499,-9.22351 9.499999,-9.6823 v -5.18436 c -4.8153,-0.46019 -7.7557,-4.03595 -9.499999,-9.68229 -1.738,-5.62895 -1.9793,-12.53318 -1.7934,-17.86342 0.1936,-5.5473 -4.1306,-10.66406 -9.9756,-10.66406 h -59.89393 z m 48.17343,50.23255 c 0,7.6395 -5.6984,12.27267 -15.155,12.27267 h -16.09774 a 1.7362619,1.7362619 0 0 1 -1.7363,-1.73626 v -39.93382 a 1.7362619,1.7362619 0 0 1 1.7363,-1.73626 h 16.00614 c 7.8852,0 13.0601,4.27121 13.0601,10.82892 0,4.60277 -3.4813,8.72333 -7.9165,9.44521 v 0.2401 c 6.0376,0.66225 10.103,4.84384 10.103,10.61944 z m -16.9103,-25.62977 h -9.1787 v 12.96494 h 7.7307 c 5.9763,0 9.2716,-2.40652 9.2716,-6.70796 0,-4.03112 -2.8337,-6.25698 -7.8236,-6.25698 z m -9.1787,18.1091 v 14.28764 h 9.5165 c 6.2223,0 9.5182,-2.49674 9.5182,-7.18895 0,-4.69218 -3.3883,-7.09949 -9.9184,-7.09949 h -9.1163 z"
     fill="#7952b3"
     fill-rule="evenodd"
     id="path11195"
     style="stroke-width:0.200076" /></svg>
