<?xml version="1.0" encoding="UTF-8" standalone="no"?>
<svg
   width="59.054668"
   height="59.054703"
   fill="none"
   viewBox="0 0 119.08277 120.99012"
   version="1.1"
   id="svg256"
   sodipodi:docname="logos.svg"
   inkscape:version="1.2.1 (9c6d41e410, 2022-07-14)"
   xml:space="preserve"
   xmlns:inkscape="http://www.inkscape.org/namespaces/inkscape"
   xmlns:sodipodi="http://sodipodi.sourceforge.net/DTD/sodipodi-0.dtd"
   xmlns="http://www.w3.org/2000/svg"
   xmlns:svg="http://www.w3.org/2000/svg"><defs
     id="defs260" /><sodipodi:namedview
     id="namedview258"
     pagecolor="#505050"
     bordercolor="#eeeeee"
     borderopacity="1"
     inkscape:showpageshadow="0"
     inkscape:pageopacity="0"
     inkscape:pagecheckerboard="0"
     inkscape:deskcolor="#505050"
     showgrid="false"
     inkscape:zoom="3.7884615"
     inkscape:cx="200.8731"
     inkscape:cy="-77.604061"
     inkscape:window-width="1920"
     inkscape:window-height="1017"
     inkscape:window-x="-8"
     inkscape:window-y="-8"
     inkscape:window-maximized="1"
     inkscape:current-layer="svg256" /><rect
     style="fill:none;fill-opacity:1;stroke:none;stroke-width:1.9367;stroke-opacity:1"
     id="rect671-5-4-9-3-7-6"
     width="120.99013"
     height="120.99013"
     x="-2.9389598"
     y="0"
     inkscape:export-filename="bootstrap.svg"
     inkscape:export-xdpi="96"
     inkscape:export-ydpi="96" /><style
     id="style11059">.st0{fill:#007acc}.st1{fill:#fff}</style><g
     style="fill:none"
     id="g11404"
     transform="matrix(0.65141752,0,0,0.65141752,17.168103,14.3975)"><path
       d="M 10.383,126.892 0,0 124,0.255 113.021,126.892 62.468,141.53 Z"
       fill="#1b73ba"
       id="path11389" /><path
       d="M 62.468,129.275 V 12.085 l 51.064,0.17 -9.106,104.85 z"
       fill="#1c88c7"
       id="path11391" /><path
       d="M 100.851,27.064 H 22.298 l 2.128,15.318 h 37.276 l -36.68,15.745 2.127,14.808 H 81.192 L 79.234,93.615 60.936,97.19 44.341,92.935 43.064,81.19 H 27.83 l 2.042,24.426 32.681,9.106 31.32,-9.957 4,-47.745 H 64.765 L 100.85,42.042 Z"
       fill="#ffffff"
       id="path11393" /></g></svg>
