<?xml version="1.0" encoding="UTF-8" standalone="no"?>
<svg
   width="59.05479"
   height="59.054707"
   fill="none"
   viewBox="0 0 119.08301 120.99013"
   version="1.1"
   id="svg256"
   xml:space="preserve"
   xmlns="http://www.w3.org/2000/svg"
   xmlns:svg="http://www.w3.org/2000/svg"><defs
     id="defs260" /><rect
     style="fill:none;fill-opacity:1;stroke:none;stroke-width:1.9367;stroke-opacity:1"
     id="rect671-5-4-9-3-7-6-3-0-6-4-3-9-7-4-3-3-7-3-1-7-4"
     width="120.99013"
     height="120.99013"
     x="-2.9389894"
     y="0" /><style
     id="style11059">.st0{fill:#007acc}.st1{fill:#fff}</style><style
     id="style12342">.st0{fill:#56b3b4}.st1{fill:#ea5e5e}.st2{fill:#bf85bf}.st3{fill:#f7ba3e}.st4{opacity:.5;fill:#d0d4d8;enable-background:new}</style><style
     type="text/css"
     id="style412">
	.st0{fill:#FFA000;}
	.st1{fill:#F57F17;}
	.st2{fill:#FFCA28;}
</style><g
     fill="#0091e2"
     id="g2040"
     transform="matrix(0.42759527,0,0,0.42759527,2.5274088,-77.29751)"><path
       d="m 234.4,303.4 c -0.6,-0.5 -6,-4.6 -17.6,-4.6 -3,0 -6.1,0.3 -9.1,0.8 -2.2,-15.3 -14.9,-22.7 -15.4,-23.1 l -3.1,-1.8 -2,2.9 c -2.5,3.9 -4.4,8.3 -5.5,12.8 -2.1,8.7 -0.8,16.9 3.6,23.9 -5.3,3 -13.9,3.7 -15.7,3.8 h -142 c -3.7,0 -6.7,3 -6.7,6.7 -0.2,12.4 1.9,24.8 6.2,36.5 4.9,12.8 12.2,22.3 21.6,28.1 10.6,6.5 27.9,10.2 47.4,10.2 8.8,0 17.6,-0.8 26.3,-2.4 12.1,-2.2 23.7,-6.4 34.4,-12.5 8.8,-5.1 16.7,-11.6 23.4,-19.2 11.3,-12.7 18,-26.9 22.9,-39.5 h 2 c 12.3,0 19.9,-4.9 24.1,-9.1 2.8,-2.6 4.9,-5.8 6.4,-9.4 l 0.9,-2.6 z"
       id="path2036" /><path
       d="m 40.8,314 h 19 c 0.9,0 1.7,-0.7 1.7,-1.7 v -17 c 0,-0.9 -0.7,-1.7 -1.7,-1.7 h -19 c -0.9,0 -1.7,0.7 -1.7,1.7 v 17 c 0.1,1 0.8,1.7 1.7,1.7 z m 26.2,0 h 19 c 0.9,0 1.7,-0.7 1.7,-1.7 v -17 c 0,-0.9 -0.7,-1.7 -1.7,-1.7 H 67 c -0.9,0 -1.7,0.7 -1.7,1.7 v 17 c 0.1,1 0.8,1.7 1.7,1.7 m 26.7,0 h 19 c 0.9,0 1.7,-0.7 1.7,-1.7 v -17 c 0,-0.9 -0.7,-1.7 -1.7,-1.7 h -19 c -0.9,0 -1.7,0.7 -1.7,1.7 v 17 c 0,1 0.7,1.7 1.7,1.7 z m 26.3,0 h 19 c 0.9,0 1.7,-0.7 1.7,-1.7 v -17 c 0,-0.9 -0.7,-1.7 -1.7,-1.7 h -19 c -0.9,0 -1.7,0.7 -1.7,1.7 v 17 c 0,1 0.8,1.7 1.7,1.7 z M 67,289.7 h 19 c 0.9,0 1.7,-0.8 1.7,-1.7 v -17 c 0,-0.9 -0.7,-1.7 -1.7,-1.7 H 67 c -0.9,0 -1.7,0.7 -1.7,1.7 v 17 c 0.1,0.9 0.8,1.7 1.7,1.7 m 26.7,0 h 19 c 0.9,0 1.7,-0.8 1.7,-1.7 v -17 c 0,-0.9 -0.7,-1.7 -1.7,-1.7 h -19 c -0.9,0 -1.7,0.7 -1.7,1.7 v 17 c 0,0.9 0.7,1.7 1.7,1.7 m 26.3,0 h 19 c 0.9,0 1.7,-0.8 1.7,-1.7 v -17 c 0,-0.9 -0.8,-1.7 -1.7,-1.7 h -19 c -0.9,0 -1.7,0.7 -1.7,1.7 v 17 c 0,0.9 0.8,1.7 1.7,1.7 m 0,-24.4 h 19 c 0.9,0 1.7,-0.7 1.7,-1.7 v -17 c 0,-0.9 -0.8,-1.7 -1.7,-1.7 h -19 c -0.9,0 -1.7,0.7 -1.7,1.7 v 17 c 0,0.9 0.8,1.7 1.7,1.7 m 26.5,48.7 h 19 c 0.9,0 1.7,-0.7 1.7,-1.7 v -17 c 0,-0.9 -0.7,-1.7 -1.7,-1.7 h -19 c -0.9,0 -1.7,0.7 -1.7,1.7 v 17 c 0.1,1 0.8,1.7 1.7,1.7"
       id="path2038" /></g></svg>
