<?xml version="1.0" encoding="UTF-8" standalone="no"?>
<svg
   width="59.054729"
   height="59.054707"
   fill="none"
   viewBox="0 0 119.08289 120.99013"
   version="1.1"
   id="svg256"
   xml:space="preserve"
   xmlns="http://www.w3.org/2000/svg"
   xmlns:svg="http://www.w3.org/2000/svg"><defs
     id="defs260" /><rect
     style="fill:none;fill-opacity:1;stroke:none;stroke-width:1.9367;stroke-opacity:1"
     id="rect671-5-4-9-3-7-6-3-0-6-4"
     width="120.99013"
     height="120.99013"
     x="-2.938931"
     y="0" /><style
     id="style11059">.st0{fill:#007acc}.st1{fill:#fff}</style><g
     id="g12096"
     transform="matrix(0.3601379,0,0,0.3601379,11.458469,20.001522)"><path
       d="m 77.965,80.568 48.57,-28.042 a 3.929,3.929 0 0 1 3.93,0 l 48.57,28.042 A 3.932,3.932 0 0 1 181,83.971 v 56.084 c 0,1.403 -0.75,2.7 -1.965,3.403 l -48.57,28.042 a 3.929,3.929 0 0 1 -3.93,0 L 77.965,143.458 A 3.931,3.931 0 0 1 76,140.055 V 83.97 c 0.001,-1.404 0.75,-2.7 1.965,-3.403"
       fill="#8080f2"
       id="path12084" /><path
       d="M 254.417,107.417 196.323,6.35 C 194.213,2.696 190.315,0 186.095,0 H 69.906 c -4.22,0 -8.12,2.696 -10.23,6.35 L 1.583,107.194 c -2.11,3.655 -2.11,8.268 0,11.923 l 58.093,100.239 c 2.11,3.654 6.01,5.522 10.23,5.522 h 116.188 c 4.22,0 8.119,-1.812 10.228,-5.467 l 58.094,-100.402 c 2.112,-3.653 2.112,-7.938 0,-11.592 z m -48.105,48.6 c 0,1.485 -0.894,2.86 -2.182,3.604 l -73.999,42.693 a 4.21,4.21 0 0 1 -4.186,0 L 51.889,159.621 c -1.287,-0.744 -2.188,-2.118 -2.188,-3.605 V 70.628 c 0,-1.487 0.888,-2.86 2.176,-3.604 L 125.872,24.33 a 4.202,4.202 0 0 1 4.185,0 l 74.06,42.694 c 1.289,0.744 2.195,2.117 2.195,3.604 v 85.388 z"
       fill="#4b32c3"
       id="path12086" /></g></svg>
