<?xml version="1.0" encoding="UTF-8" standalone="no"?>
<svg
   width="60"
   height="60.000008"
   fill="none"
   viewBox="0 0 120.98901 122.92684"
   version="1.1"
   id="svg256"
   xml:space="preserve"
   xmlns="http://www.w3.org/2000/svg"
   xmlns:svg="http://www.w3.org/2000/svg"><g
     id="g669"
     transform="matrix(1.072206,0,0,1.072206,7.7501566,237.73585)"><path
       fill="#172b4d"
       d="m 56.223698,-206.40164 9.694,5.57462 -38.1762,21.95368 -9.69396,-5.5747 z"
       id="path228-1" /><path
       fill="#172b4d"
       d="m 66.308598,-199.65657 -37.9358,21.80553 -0.001,11.0325 37.9359,-21.8055 z"
       id="path230-7" /><path
       fill="#172b4d"
       d="m 51.053398,-178.12594 -22.6009,12.9912 -10e-4,11.0328 22.6008,-12.9913 z"
       id="path232-4" /><path
       fill="#172b4d"
       d="m 42.389498,-160.68454 -13.9905,8.0421 -10e-4,11.033 13.9906,-8.0421 z"
       id="path234-6" /><path
       fill="#172b4d"
       d="m 17.358658,-183.38434 9.75098,5.6047 -0.004,11.0351 -9.75099,-5.6046 z"
       id="path236-9" /><path
       fill="#172b4d"
       d="m 17.451438,-170.74424 9.6327,5.5367 -0.004,11.0351 -9.6327,-5.5366 z"
       id="path238-5" /><path
       fill="#172b4d"
       d="m 17.447198,-158.18024 9.63594,5.5386 -0.004,11.763 -9.63594,-5.5386 z"
       id="path240-9" /><path
       fill="#172b4d"
       d="m 38.919398,-122.40164 -9.694,-5.5746 37.7429,-21.7045 9.6939,5.5746 z"
       id="path242-6" /><path
       fill="#172b4d"
       d="m 28.456898,-128.93034 37.8789,-21.7728 0.001,-11.0325 -37.8789,21.7728 z"
       id="path244-1" /><path
       fill="#172b4d"
       d="m 43.655098,-150.42814 22.6008,-12.9913 0.001,-11.0327 -22.6009,12.9912 z"
       id="path246-6" /><path
       fill="#172b4d"
       d="m 52.318998,-167.86964 13.9905,-8.0421 10e-4,-11.0329 -13.9905,8.0421 z"
       id="path248-7" /><path
       fill="#172b4d"
       d="m 77.351098,-145.09584 -9.7509,-5.6046 0.004,-11.0352 9.751,5.6046 z"
       id="path250-2" /><path
       fill="#172b4d"
       d="m 77.258998,-157.80694 -9.6327,-5.5367 0.004,-11.0351 9.6327,5.5366 z"
       id="path252-2" /><path
       fill="#172b4d"
       d="m 77.262598,-170.37094 -9.636,-5.5386 0.004,-11.5516 9.636,5.5385 z"
       id="path254-9" /></g><defs
     id="defs260" /><rect
     style="fill:none;stroke:none;stroke-width:1.9677"
     id="rect671"
     width="122.92683"
     height="122.92683"
     x="-2.939023"
     y="0" /></svg>
