<?xml version="1.0" encoding="UTF-8" standalone="no"?>
<svg
   width="59.05479"
   height="59.054707"
   fill="none"
   viewBox="0 0 119.08301 120.99013"
   version="1.1"
   id="svg256"
   sodipodi:docname="logos.svg"
   inkscape:version="1.2.1 (9c6d41e410, 2022-07-14)"
   xml:space="preserve"
   inkscape:export-filename="..\..\logos.svg"
   inkscape:export-xdpi="96"
   inkscape:export-ydpi="96"
   xmlns:inkscape="http://www.inkscape.org/namespaces/inkscape"
   xmlns:sodipodi="http://sodipodi.sourceforge.net/DTD/sodipodi-0.dtd"
   xmlns="http://www.w3.org/2000/svg"
   xmlns:svg="http://www.w3.org/2000/svg"><defs
     id="defs260" /><sodipodi:namedview
     id="namedview258"
     pagecolor="#505050"
     bordercolor="#eeeeee"
     borderopacity="1"
     inkscape:showpageshadow="0"
     inkscape:pageopacity="0"
     inkscape:pagecheckerboard="0"
     inkscape:deskcolor="#505050"
     showgrid="false"
     inkscape:zoom="1.8942308"
     inkscape:cx="1374.4365"
     inkscape:cy="-38.010152"
     inkscape:window-width="1920"
     inkscape:window-height="1017"
     inkscape:window-x="-8"
     inkscape:window-y="-8"
     inkscape:window-maximized="1"
     inkscape:current-layer="svg256" /><rect
     style="fill:none;fill-opacity:1;stroke:none;stroke-width:1.9367;stroke-opacity:1"
     id="rect671-5-4-9-3-7-6-3-0-6-4-3-9-7-4-3-3-7-3"
     width="120.99013"
     height="120.99013"
     x="-2.9389248"
     y="0"
     inkscape:export-filename="..\..\github.svg"
     inkscape:export-xdpi="96"
     inkscape:export-ydpi="96" /><style
     id="style11059">.st0{fill:#007acc}.st1{fill:#fff}</style><style
     id="style12342">.st0{fill:#56b3b4}.st1{fill:#ea5e5e}.st2{fill:#bf85bf}.st3{fill:#f7ba3e}.st4{opacity:.5;fill:#d0d4d8;enable-background:new}</style><style
     type="text/css"
     id="style412">
	.st0{fill:#FFA000;}
	.st1{fill:#F57F17;}
	.st2{fill:#FFCA28;}
</style><g
     id="g1573"
     transform="matrix(2.0487805,0,0,2.0487805,-4.4194091,-3.3029295)"><path
       d="M 50.67,29.25 32.138,10.72 c -1.066,-1.067 -2.797,-1.067 -3.865,0 l -3.847,3.848 4.88,4.88 c 1.135,-0.383 2.435,-0.125 3.337,0.777 a 3.25,3.25 0 0 1 0.771,3.36 l 4.704,4.704 c 1.125,-0.392 2.45,-0.137 3.36,0.77 A 3.25,3.25 0 0 1 40.019,34.5 3.25,3.25 0 0 1 36.878,33.658 c -0.955,-0.956 -1.19,-2.36 -0.707,-3.537 l -4.375,-4.375 v 11.545 c 0.3,0.154 0.602,0.357 0.86,0.615 1.27,1.27 1.27,3.328 0,4.6 a 3.25,3.25 0 0 1 -4.599,0 c -1.27,-1.273 -1.27,-3.33 0,-4.6 a 3.27,3.27 0 0 1 1.065,-0.71 v -11.65 c -0.375,-0.16 -0.75,-0.394 -1.065,-0.7 a 3.25,3.25 0 0 1 -0.7,-3.555 L 22.545,16.478 9.83,29.163 a 2.74,2.74 0 0 0 0,3.866 l 18.533,18.53 c 1.066,1.067 2.797,1.067 3.865,0 L 50.67,33.116 a 2.74,2.74 0 0 0 0,-3.866"
       fill="#f03c2e"
       id="path1563" /></g></svg>
