<?xml version="1.0" encoding="UTF-8" standalone="no"?>
<svg
   width="59.054729"
   height="59.054707"
   fill="none"
   viewBox="0 0 119.08289 120.99013"
   version="1.1"
   id="svg256"
   sodipodi:docname="logos.svg"
   inkscape:version="1.2.1 (9c6d41e410, 2022-07-14)"
   xml:space="preserve"
   xmlns:inkscape="http://www.inkscape.org/namespaces/inkscape"
   xmlns:sodipodi="http://sodipodi.sourceforge.net/DTD/sodipodi-0.dtd"
   xmlns="http://www.w3.org/2000/svg"
   xmlns:svg="http://www.w3.org/2000/svg"><defs
     id="defs260" /><sodipodi:namedview
     id="namedview258"
     pagecolor="#505050"
     bordercolor="#eeeeee"
     borderopacity="1"
     inkscape:showpageshadow="0"
     inkscape:pageopacity="0"
     inkscape:pagecheckerboard="0"
     inkscape:deskcolor="#505050"
     showgrid="false"
     inkscape:zoom="3.7884615"
     inkscape:cx="200.8731"
     inkscape:cy="-77.604061"
     inkscape:window-width="1920"
     inkscape:window-height="1017"
     inkscape:window-x="-8"
     inkscape:window-y="-8"
     inkscape:window-maximized="1"
     inkscape:current-layer="svg256" /><rect
     style="fill:none;fill-opacity:1;stroke:none;stroke-width:1.9367;stroke-opacity:1"
     id="rect671-5-4-9-3-7-6-3"
     width="120.99013"
     height="120.99013"
     x="-2.938941"
     y="0"
     inkscape:export-filename="css3.svg"
     inkscape:export-xdpi="96"
     inkscape:export-ydpi="96" /><style
     id="style11059">.st0{fill:#007acc}.st1{fill:#fff}</style><g
     id="g11585"
     transform="matrix(0.08763795,0,0,0.08763795,11.458528,14.397484)"><path
       fill="#f0db4f"
       d="M 0,0 H 1052 V 1052 H 0 Z"
       id="path11573" /><path
       d="m 965.9,801.1 c -7.7,-48 -39,-88.3 -131.7,-125.9 -32.2,-14.8 -68.1,-25.399 -78.8,-49.8 -3.8,-14.2 -4.3,-22.2 -1.9,-30.8 6.9,-27.9 40.2,-36.6 66.6,-28.6 17,5.7 33.1,18.801 42.8,39.7 45.4,-29.399 45.3,-29.2 77,-49.399 -11.6,-18 -17.8,-26.301 -25.4,-34 -27.3,-30.5 -64.5,-46.2 -124,-45 -10.3,1.3 -20.699,2.699 -31,4 -29.699,7.5 -58,23.1 -74.6,44 -49.8,56.5 -35.6,155.399 25,196.1 59.7,44.8 147.4,55 158.6,96.9 10.9,51.3 -37.699,67.899 -86,62 -35.6,-7.4 -55.399,-25.5 -76.8,-58.4 -39.399,22.8 -39.399,22.8 -79.899,46.1 9.6,21 19.699,30.5 35.8,48.7 76.2,77.3 266.899,73.5 301.1,-43.5 1.399,-4.001 10.6,-30.801 3.199,-72.101 z m -394,-317.6 h -98.4 c 0,85 -0.399,169.4 -0.399,254.4 0,54.1 2.8,103.7 -6,118.9 -14.4,29.899 -51.7,26.2 -68.7,20.399 -17.3,-8.5 -26.1,-20.6 -36.3,-37.699 -2.8,-4.9 -4.9,-8.7 -5.601,-9 -26.699,16.3 -53.3,32.699 -80,49 13.301,27.3 32.9,51 58,66.399 37.5,22.5 87.9,29.4 140.601,17.3 34.3,-10 63.899,-30.699 79.399,-62.199 22.4,-41.3 17.6,-91.3 17.4,-146.6 0.5,-90.2 0,-180.4 0,-270.9 z"
       fill="#323330"
       id="path11575" /></g></svg>
