<?xml version="1.0" encoding="UTF-8" standalone="no"?>
<svg
   width="59.054668"
   height="59.054707"
   fill="none"
   viewBox="0 0 119.08277 120.99013"
   version="1.1"
   id="svg256"
   sodipodi:docname="logos.svg"
   inkscape:version="1.2.1 (9c6d41e410, 2022-07-14)"
   xml:space="preserve"
   xmlns:inkscape="http://www.inkscape.org/namespaces/inkscape"
   xmlns:sodipodi="http://sodipodi.sourceforge.net/DTD/sodipodi-0.dtd"
   xmlns="http://www.w3.org/2000/svg"
   xmlns:svg="http://www.w3.org/2000/svg"><defs
     id="defs260" /><sodipodi:namedview
     id="namedview258"
     pagecolor="#505050"
     bordercolor="#eeeeee"
     borderopacity="1"
     inkscape:showpageshadow="0"
     inkscape:pageopacity="0"
     inkscape:pagecheckerboard="0"
     inkscape:deskcolor="#505050"
     showgrid="false"
     inkscape:zoom="1.8942308"
     inkscape:cx="457.44163"
     inkscape:cy="-118.78173"
     inkscape:window-width="1920"
     inkscape:window-height="1017"
     inkscape:window-x="-8"
     inkscape:window-y="-8"
     inkscape:window-maximized="1"
     inkscape:current-layer="svg256" /><rect
     style="fill:none;fill-opacity:1;stroke:none;stroke-width:1.9367;stroke-opacity:1"
     id="rect671-5-4-9-3-7-6-3-0-6-4-3-9-7-4-3"
     width="120.99013"
     height="120.99013"
     x="-2.9389632"
     y="0"
     inkscape:export-filename="..\..\a.svg"
     inkscape:export-xdpi="96"
     inkscape:export-ydpi="96" /><style
     id="style11059">.st0{fill:#007acc}.st1{fill:#fff}</style><style
     id="style12342">.st0{fill:#56b3b4}.st1{fill:#ea5e5e}.st2{fill:#bf85bf}.st3{fill:#f7ba3e}.st4{opacity:.5;fill:#d0d4d8;enable-background:new}</style><style
     type="text/css"
     id="style412">
	.st0{fill:#FFA000;}
	.st1{fill:#F57F17;}
	.st2{fill:#FFCA28;}
</style><g
     style="fill:#99424f"
     id="g488"
     transform="matrix(2.0487805,0,0,2.0487805,-22.96617,-20.967511)"><path
       d="m 58.735025,39.423497 c -0.006,-2.682514 -1.81796,-5.024526 -4.413,-5.704 l 5.663,-16.705 h -28.073 l 5.678,16.758 c -2.520463,0.731757 -4.254539,3.040462 -4.255,5.665 0,1.976 0.988,3.728 2.5,4.8 -0.593,0.843 -1.278,1.62 -2.055,2.358 -1.462,1.37 -3.083,2.424 -4.835,3.122 -1.58,-1.067 -2.266,-2.95 -1.647,-4.637 2.4,-0.738 4.163,-3 4.163,-5.64 -0.0055,-3.250674 -2.639326,-5.884495 -5.89,-5.89 -3.257757,0.0044 -5.897593,2.644243 -5.902,5.902 0,1.607 0.66,3.083 1.713,4.137 l -0.277,0.566 c -0.883,1.818 -1.884,3.873 -2.266,6.18 -0.764,4.6 0.487,8.313 3.504,10.408 1.7,1.172 3.57,1.765 5.586,1.765 3.465,0 6.982,-1.74 10.38,-3.425 2.424,-1.2 4.927,-2.45 7.4,-3.056 0.9,-0.224 1.858,-0.356 2.86,-0.5 2.03,-0.3 4.124,-0.593 6.007,-1.686 2.2,-1.278 3.702,-3.412 4.137,-5.862 0.33,-1.884 0,-3.78 -0.843,-5.44 0.581798,-0.937042 0.887822,-2.019043 0.883,-3.122 z m -2.57,0 c 0,1.83 -1.5,3.32 -3.32,3.32 -2.535093,-0.02417 -4.120081,-2.752986 -2.885,-4.967 0.105,-0.184 0.237,-0.37 0.37,-0.527 0.137312,-0.161408 0.291901,-0.307279 0.461,-0.435 l 0.013,-0.013 c 0.105,-0.08 0.224,-0.158 0.343,-0.237 0.066,-0.04 0.12,-0.08 0.17,-0.105 0.013,0 0.026,-0.013 0.04,-0.013 0.053,-0.026 0.12,-0.053 0.184,-0.08 0.064,-0.027 0.132,-0.053 0.184,-0.08 0.013,0 0.026,-0.013 0.04,-0.013 0.053,-0.013 0.105,-0.04 0.158,-0.053 0.013,0 0.04,-0.013 0.053,-0.013 l 0.184,-0.04 h 0.013 l 0.198,-0.04 c 0.013,0 0.04,0 0.053,-0.013 0.053,0 0.105,-0.013 0.158,-0.013 h 0.066 c 0.066,0 0.132,-0.013 0.2,-0.013 h 0.17 c 0.0487,-0.0022 0.09748,0.0021 0.145,0.013 h 0.026 c 0.106355,0.01092 0.211903,0.02862 0.316,0.053 1.541394,0.330331 2.643942,1.690613 2.648,3.267 z m -20.578,-19.774 h 20.723 l -4.756,14.03 c -0.198,0.04 -0.395,0.105 -0.593,0.17 l -5.006,-10.2 -5.02,10.137 c -0.198,-0.066 -0.408,-0.105 -0.62,-0.145 z m 9.42,18.628 c -0.242532,-1.216267 -0.865969,-2.323743 -1.78,-3.162 l 2.727,-5.507 2.753,5.625 c -0.817,0.817 -1.4,1.858 -1.647,3.043 z m -6.6,-2.082 0.184,-0.04 h 0.04 c 0.053,-0.013 0.105,-0.013 0.158,-0.026 h 0.053 c 0.053,0 0.092,-0.013 0.145,-0.013 h 0.514 c 0.053,0 0.092,0.013 0.132,0.013 0.026,0 0.04,0 0.066,0.013 0.053,0.013 0.092,0.013 0.145,0.026 0.013,0 0.026,0 0.053,0.013 l 0.184,0.04 c 0.05917,0.0097 0.116717,0.02753 0.171,0.053 0.013,0 0.026,0.013 0.053,0.013 0.04,0.013 0.092,0.026 0.132,0.053 0.013,0 0.026,0.013 0.04,0.013 0.053,0.026 0.105,0.04 0.158,0.066 h 0.013 c 0.06094,0.02269 0.118482,0.05365 0.171,0.092 0.066,0.026 0.12,0.066 0.17,0.092 0.013,0 0.013,0.013 0.026,0.013 0.053,0.026 0.092,0.066 0.145,0.092 l 0.013,0.013 c 0.154958,0.120585 0.304441,0.248046 0.448,0.382 l 0.013,0.013 c 0.137326,0.146307 0.26085,0.30498 0.369,0.474 0.353471,0.540358 0.541177,1.172301 0.54,1.818 0,1.83 -1.5,3.32 -3.32,3.32 -1.829043,-0.01092 -3.30908,-1.490957 -3.32,-3.32 -0.013,-1.54 1.054,-2.846 2.503,-3.214 z m -12.963,-0.092 c 1.83,0 3.32,1.5 3.32,3.32 -0.01092,1.829043 -1.490957,3.30908 -3.32,3.32 -1.829043,-0.01092 -3.30908,-1.490957 -3.32,-3.32 0.01092,-1.829043 1.490957,-3.30908 3.32,-3.32 z m 30.641,11.423 c -0.3,1.686 -1.33,3.162 -2.86,4.044 -1.436,0.83 -3.2,1.093 -5.06,1.357 -1.014,0.145 -2.082,0.303 -3.1,0.553 -2.74,0.672 -5.375,2 -7.93,3.254 -3.267,1.62 -6.35,3.15 -9.2,3.15 -1.5,0 -2.82,-0.422 -4.084,-1.304 -2.913,-2.014 -2.768,-5.759 -2.416,-7.814 0.316,-1.923 1.2,-3.728 2.042,-5.454 0.053,-0.105 0.092,-0.198 0.145,-0.303 0.29588,0.105263 0.600363,0.184562 0.91,0.237 -0.5,2.793 0.922,5.678 3.7,7.1 l 0.5,0.263 0.54,-0.198 c 2.305,-0.817 4.44,-2.147 6.324,-3.926 1.041041,-0.970368 1.961039,-2.06295 2.74,-3.254 0.297526,0.04799 0.598656,0.07007 0.9,0.066 2.682514,-0.006 5.024526,-1.81796 5.704,-4.413 h 2.213 c 0.66,2.543 2.964,4.413 5.704,4.413 1.047718,1.15e-4 2.076106,-0.282113 2.977,-0.817 0.343,0.988 0.448,2.016 0.263,3.043 z"
       id="path479"
       sodipodi:nodetypes="cccccccccccccccccscccccccccccccccccsccccccccsssccccccccccccccccccccccccsssscccccccccccccccccccccccccccccccccscccccccccccccsccc" /></g></svg>
