<?xml version="1.0" encoding="UTF-8" standalone="no"?>
<svg
   width="59.054729"
   height="59.054703"
   fill="none"
   viewBox="0 0 119.08289 120.99012"
   version="1.1"
   id="svg256"
   xml:space="preserve"
   xmlns="http://www.w3.org/2000/svg"
   xmlns:svg="http://www.w3.org/2000/svg"><defs
     id="defs260" /><rect
     style="fill:none;fill-opacity:1;stroke:none;stroke-width:1.9367;stroke-opacity:1"
     id="rect671-5-4-9"
     width="120.99013"
     height="120.99013"
     x="-2.938983"
     y="0" /><g
     style="fill:none"
     id="g10925"
     transform="matrix(2.6289228,0,0,2.6289228,10.234159,17.677894)"><path
       fill-rule="evenodd"
       clip-rule="evenodd"
       d="m 30.343,21.976 a 1,1 0 0 0 0.502,-0.864 l 0.018,-5.787 a 1,1 0 0 1 0.502,-0.864 l 3.137,-1.802 A 1,1 0 0 1 36,13.526 v 10.521 a 1,1 0 0 1 -0.502,0.867 l -11.839,6.8 a 1,1 0 0 1 -0.994,0.001 L 13.374,26.401 A 1,1 0 0 1 12.87,25.533 v -5.305 c 0,-0.006 0.007,-0.01 0.013,-0.007 0.005,0.003 0.012,0 0.012,-0.007 v -0.006 c 0,-0.004 0.002,-0.008 0.006,-0.01 l 7.652,-4.396 c 0.007,-0.004 0.004,-0.015 -0.004,-0.015 a 0.008,0.008 0 0 1 -0.008,-0.008 l 0.015,-5.201 a 1,1 0 0 0 -1.5,-0.87 l -5.687,3.277 a 1,1 0 0 1 -0.998,0 L 6.666,9.7 a 1,1 0 0 0 -1.499,0.866 v 9.4 A 1,1 0 0 1 3.671,20.835 L 0.505,19.025 A 1,1 0 0 1 0.001,18.155 L 0.029,1.725 A 1,1 0 0 1 1.527,0.86 l 10.845,6.229 a 1,1 0 0 0 0.996,0 L 24.21,0.86 a 1,1 0 0 1 1.498,0.868 v 16.434 a 1,1 0 0 1 -0.501,0.867 l -5.678,3.27 a 1,1 0 0 0 0.004,1.735 l 3.132,1.783 a 1,1 0 0 0 0.993,-0.002 z M 31,7.234 a 1,1 0 0 0 1.514,0.857 l 3,-1.8 A 1,1 0 0 0 36,5.434 V 1.766 A 1,1 0 0 0 34.486,0.91 l -3,1.8 A 1,1 0 0 0 31,3.567 v 3.668 z"
       fill="#007fff"
       id="path10916" /></g></svg>
