<?xml version="1.0" encoding="UTF-8" standalone="no"?>
<svg
   width="59.054707"
   height="59.054707"
   fill="none"
   viewBox="0 0 119.08284 120.99013"
   version="1.1"
   id="svg256"
   sodipodi:docname="formik.svg"
   inkscape:version="1.2.1 (9c6d41e410, 2022-07-14)"
   xml:space="preserve"
   xmlns:inkscape="http://www.inkscape.org/namespaces/inkscape"
   xmlns:sodipodi="http://sodipodi.sourceforge.net/DTD/sodipodi-0.dtd"
   xmlns="http://www.w3.org/2000/svg"
   xmlns:svg="http://www.w3.org/2000/svg"><defs
     id="defs260" /><sodipodi:namedview
     id="namedview258"
     pagecolor="#505050"
     bordercolor="#eeeeee"
     borderopacity="1"
     inkscape:showpageshadow="0"
     inkscape:pageopacity="0"
     inkscape:pagecheckerboard="0"
     inkscape:deskcolor="#505050"
     showgrid="false"
     inkscape:zoom="3.7884615"
     inkscape:cx="22.568528"
     inkscape:cy="-49.360406"
     inkscape:window-width="1920"
     inkscape:window-height="1017"
     inkscape:window-x="-8"
     inkscape:window-y="-8"
     inkscape:window-maximized="1"
     inkscape:current-layer="svg256" /><rect
     style="fill:none;stroke:none;stroke-width:1.9367;stroke-opacity:1"
     id="rect671-5"
     width="120.99013"
     height="120.99013"
     x="-2.9390275"
     y="1.5258789e-05"
     inkscape:export-filename="react-routersvg"
     inkscape:export-xdpi="96"
     inkscape:export-ydpi="96" /><g
     style="fill:none"
     id="g3206"
     transform="matrix(1.1130689,0,0,1.1130689,5.479307,26.546465)"><path
       d="M 72.7315,20.9357 C 70.0548,20.0941 68.6725,20.3778 65.8649,20.071 61.5246,19.5976 59.7954,17.9013 59.0619,13.5356 58.6514,11.0985 59.1361,7.53022 58.0881,5.32106 56.0839,1.10875 51.3943,-0.780439 46.6828,0.297843 42.7049,1.20956 39.3951,5.18518 39.2117,9.266 c -0.2096,4.6594 2.4453,8.635 7.0039,10.007 2.1658,0.6531 4.4669,0.9818 6.7288,1.1484 4.1481,0.3024 4.4669,2.6083 5.5891,4.5063 0.7074,1.1966 1.3929,2.3757 1.3929,5.9437 0,3.568 -0.6899,4.7471 -1.3929,5.9437 -1.1222,1.8936 -2.5064,3.134 -6.6545,3.4408 -2.2619,0.1666 -4.5674,0.4954 -6.7288,1.1485 -4.5586,1.3763 -7.2135,5.3475 -7.0039,10.0069 0.1834,4.0808 3.4932,8.0565 7.4711,8.9682 4.7115,1.0826 9.4011,-0.8109 11.4053,-5.0232 1.0523,-2.2092 1.6287,-4.712 2.0392,-7.1491 0.7379,-4.3658 2.467,-6.0621 6.803,-6.5355 2.8076,-0.3068 5.7134,0 8.3444,-1.4947 2.7802,-2.0314 5.2641,-5.0802 5.2641,-9.3056 0,-4.2255 -2.6767,-8.6558 -6.7419,-9.9357 z"
       fill="#f44250"
       id="path3188" /><path
       d="m 28.1997,40.7739 c -5.4712,0 -9.9341,-4.4712 -9.9341,-9.9526 0,-5.4814 4.4629,-9.9526 9.9341,-9.9526 5.4712,0 9.9341,4.4712 9.9341,9.9526 0,5.477 -4.4673,9.9526 -9.9341,9.9526 z"
       fill="#121212"
       id="path3190" /><path
       d="M 9.899,61 C 4.43661,60.9868 -0.0130938,56.498 2.89511e-5,51.0122 0.0132099,45.5353 4.4936,41.0773 9.96914,41.0948 15.4359,41.108 19.8856,45.5968 19.8681,51.0825 19.8549,56.5551 15.3745,61.0131 9.899,61 Z"
       fill="#121212"
       id="path3192" /><path
       d="m 83.7137,60.9998 c -5.4798,0.0306 -9.9776,-4.4097 -10.0085,-9.8778 -0.0305,-5.49 4.4016,-9.9962 9.8594,-10.0271 5.4798,-0.0306 9.9777,4.4097 10.0085,9.8778 0.0305,5.4856 -4.4015,9.9962 -9.8594,10.0271 z"
       fill="#121212"
       id="path3194" /></g></svg>
