<?xml version="1.0" encoding="UTF-8" standalone="no"?>
<svg
   width="59.054668"
   height="59.054703"
   fill="none"
   viewBox="0 0 119.08277 120.99012"
   version="1.1"
   id="svg256"
   xml:space="preserve"
   xmlns="http://www.w3.org/2000/svg"
   xmlns:svg="http://www.w3.org/2000/svg"><defs
     id="defs260" /><rect
     style="fill:none;fill-opacity:1;stroke:none;stroke-width:1.9367;stroke-opacity:1"
     id="rect671-5-4-9-3-7-6-3-0-6-4-3-9-7-4-3-3-7-3-1"
     width="120.99013"
     height="120.99013"
     x="-2.9389052"
     y="0" /><style
     id="style11059">.st0{fill:#007acc}.st1{fill:#fff}</style><style
     id="style12342">.st0{fill:#56b3b4}.st1{fill:#ea5e5e}.st2{fill:#bf85bf}.st3{fill:#f7ba3e}.st4{opacity:.5;fill:#d0d4d8;enable-background:new}</style><style
     type="text/css"
     id="style412">
	.st0{fill:#FFA000;}
	.st1{fill:#F57F17;}
	.st2{fill:#FFCA28;}
</style><path
     d="m 90.829836,65.626207 c -3.2239,0.0184 -6.0149,0.79249 -8.3567,1.94565 -0.8649,-1.71134 -1.7298,-3.20554 -1.8733,-4.3219 -0.1619,-1.2967 -0.3607,-2.08919 -0.1619,-3.6386 0.1987,-1.54941 1.0992,-3.74655 1.0992,-3.92566 -0.019,-0.16194 -0.1963,-0.95444 -2.0537,-0.97284 -1.8573,-0.0184 -3.4594,0.36068 -3.6385,0.85875 a 20.683332,20.683332 0 0 0 -0.7741,2.75532 c -0.3239,1.69294 -3.7098,7.69184 -5.6371,10.84219 -0.6305,-1.22432 -1.1703,-2.30633 -1.2782,-3.16998 -0.1619,-1.29669 -0.3607,-2.08918 -0.1619,-3.63859 0.1987,-1.54941 1.0991,-3.74656 1.0991,-3.92567 -0.019,-0.16193 -0.1963,-0.95442 -2.0536,-0.97282 -1.8573,-0.0184 -3.4595,0.36067 -3.6386,0.85874 -0.1791,0.49806 -0.3779,1.63896 -0.7729,2.75532 -0.3778,1.10409 -4.8801,11.13048 -6.0516,13.73982 -0.5938,1.33227 -1.1041,2.39588 -1.4967,3.11599 -0.3926,0.72012 -0.019,0.0539 -0.054,0.12636 l -0.503,0.95443 v 0.0184 c -0.2527,0.45022 -0.5226,0.88327 -0.6502,0.88327 -0.09,0 -0.2698,-1.20714 0.037,-2.86328 0.6661,-3.47544 2.2867,-8.89653 2.2695,-9.09526 0,-0.0896 0.3067,-1.04276 -1.0428,-1.53101 -1.3151,-0.48581 -1.7824,0.32386 -1.8891,0.32386 -0.1068,0 -0.1963,0.28829 -0.1963,0.28829 0,0 1.4598,-6.10563 -2.7922,-6.10563 -2.6658,0 -6.3399,2.90009 -8.158,5.54745 l -9.1849,5.02485 -0.1963,-0.21591 c -5.1524,-5.49347 -14.6782,-9.38478 -14.282,-16.76749 0.1435,-2.68294 1.0795,-9.7614 18.2985,-18.33406 14.1017,-7.02326 25.3941,-5.09723 27.3569,-0.80967 2.7922,6.12158 -6.0332,17.506 -20.6931,19.14496 -5.5818,0.63057 -8.5187,-1.531 -9.2572,-2.34067 -0.7729,-0.85874 -0.8833,-0.88327 -1.1703,-0.72012 -0.4687,0.25271 -0.1804,1.00841 0,1.45986 0.4317,1.13476 2.2327,3.15279 5.2947,4.15875 2.6829,0.88327 9.2375,1.36907 17.1624,-1.69295 8.8733,-3.47789 15.807,-13.00988 13.773,-20.99002 -2.0732,-8.12244 -15.5431,-10.78698 -28.277,-6.26634 -7.5814,2.70258 -15.7935,6.9153 -21.7015,12.44313 -7.0233,6.55585 -8.1409,12.28241 -7.6723,14.65989 1.639,8.48311 13.3277,14.01216 18.009,18.09975 l -0.6501,0.36067 c -2.3408,1.15317 -11.2557,5.81735 -13.4897,10.75141 -2.521,5.58181 0.3963,9.59947 2.3407,10.13925 6.0149,1.67454 12.1745,-1.33227 15.5064,-6.28596 3.3123,-4.95247 2.9173,-11.38197 1.3862,-14.3164 l -0.054,-0.10796 1.8365,-1.07956 a 109.55051,109.55051 0 0 1 3.3859,-1.90885 c -0.5766,1.56659 -0.99,3.42269 -1.2072,6.12158 -0.2527,3.16997 1.0428,7.27474 2.7554,8.89653 0.7569,0.70294 1.6561,0.72011 2.2155,0.72011 1.9813,0 2.8829,-1.63896 3.8717,-3.60179 1.2243,-2.39588 2.3063,-5.16838 2.3063,-5.16838 0,0 -1.3494,7.51028 2.3408,7.51028 1.3493,0 2.7013,-1.74692 3.3122,-2.64737 v 0.0184 c 0,0 0.037,-0.054 0.108,-0.18033 0.1435,-0.21592 0.2158,-0.3435 0.2158,-0.3435 v -0.0368 c 0.5398,-0.93602 1.747,-3.06693 3.5479,-6.62823 2.3234,-4.57586 4.5562,-10.30119 4.5562,-10.30119 0,0 0.2159,1.40466 0.8833,3.70976 0.3962,1.36907 1.2611,2.86327 1.926,4.3219 l -0.8649,1.18997 0.019,0.0184 c -0.4319,0.57658 -0.9201,1.18997 -1.4231,1.8009 -1.8365,2.19591 -4.0336,4.70098 -4.3218,5.42232 -0.3436,0.85874 -0.27,1.47703 0.3962,1.98123 0.4858,0.36067 1.3494,0.43183 2.2695,0.36067 1.6561,-0.10795 2.8215,-0.5226 3.3859,-0.77286 a 11.727915,11.727915 0 0 0 2.9172,-1.53101 c 1.8009,-1.33228 2.9001,-3.22395 2.7921,-5.74496 -0.054,-1.38625 -0.5029,-2.75532 -1.0623,-4.05202 l 0.4858,-0.72011 c 2.8461,-4.15875 5.042,-8.7346 5.042,-8.7346 0,0 0.2159,1.40465 0.8832,3.70975 0.3436,1.17034 1.0268,2.44985 1.639,3.70975 -2.6657,2.17874 -4.3403,4.70098 -4.9168,6.35712 -1.0624,3.06202 -0.2331,4.44826 1.3322,4.7844 0.703,0.14353 1.7113,-0.18033 2.4658,-0.50298 0.936,-0.30669 2.0708,-0.82807 3.116,-1.60339 1.8009,-1.33227 3.5294,-3.18714 3.4399,-5.6922 -0.054,-1.15317 -0.3607,-2.2867 -0.7729,-3.36749 2.2695,-0.93602 5.2052,-1.47703 8.9333,-1.0268 8.014504,0.93602 9.599504,5.9437 9.292804,8.03288 -0.3067,2.08919 -1.981204,3.24236 -2.539404,3.6018 -0.5581,0.34349 -0.7385,0.46863 -0.6845,0.72011 0.074,0.37785 0.3238,0.36067 0.8096,0.28829 0.6661,-0.10795 4.214004,-1.71134 4.358804,-5.56463 0.2159,-4.95246 -4.485204,-10.35393 -12.823404,-10.30118 z m -61.8083,20.83668 c -2.6474,2.90008 -6.3755,3.99927 -7.9617,3.06202 -1.7114,-0.99001 -1.0428,-5.25917 2.2155,-8.33836 1.9812,-1.87327 4.5562,-3.60179 6.2492,-4.66418 l 1.6389,-0.99 c 0.108,-0.0736 0.1803,-0.10796 0.1803,-0.10796 0.1264,-0.0736 0.27,-0.16193 0.4147,-0.25271 1.2071,4.39429 0.054,8.2488 -2.7357,11.29242 z m 19.3609,-13.16569 c -0.9201,2.25112 -2.8633,8.03288 -4.0336,7.70779 -1.0084,-0.26989 -1.6194,-4.647 -0.1963,-8.96769 0.7201,-2.17874 2.2511,-4.78439 3.1527,-5.78176 1.4599,-1.61934 3.0425,-2.16157 3.4399,-1.49421 0.4686,0.86488 -1.7825,7.13244 -2.3591,8.53832 z m 15.9737,7.63664 c -0.3962,0.19628 -0.7569,0.34349 -0.9201,0.23309 -0.1263,-0.0736 0.162,-0.3435 0.162,-0.3435 0,0 1.9996,-2.14317 2.7921,-3.13317 l 1.5666,-1.99963 v 0.2159 c 0,2.5934 -2.4854,4.32192 -3.6018,5.02485 z m 12.3192,-2.82157 c -0.2883,-0.21591 -0.2527,-0.88328 0.7201,-2.97124 0.3779,-0.82807 1.2428,-2.21555 2.7358,-3.52942 0.1803,0.53978 0.2883,1.06239 0.2698,1.54941 -0.018,3.24236 -2.3235,4.44827 -3.7294,4.95248 z"
     fill="#cf649a"
     id="path3767"
     style="stroke-width:1.22677" /></svg>
